<?xml version="1.0" encoding="UTF-8"?>
<svg version="1.1" xmlns="http://www.w3.org/2000/svg" width="637" height="167">
<path d="M0 0 C210.21 0 420.42 0 637 0 C637 55.11 637 110.22 637 167 C426.79 167 216.58 167 0 167 C0 111.89 0 56.78 0 0 Z " fill="#472A76" transform="translate(0,0)"/>
<path d="M0 0 C6.28276577 4.09066758 12.2486741 8.41082864 18.125 13.0625 C23.33494651 17.17119296 28.56759182 21.18866853 34 25 C29.78476341 29.46815078 25.12085479 33.14499326 20.25 36.875 C19.48945313 37.46152344 18.72890625 38.04804687 17.9453125 38.65234375 C16.41275291 39.83423292 14.87825342 41.01361101 13.34179688 42.19042969 C11.71317528 43.44891001 10.09540002 44.72150107 8.48632812 46.00488281 C7.68130859 46.64522461 6.87628906 47.28556641 6.046875 47.9453125 C4.95391113 48.82340576 4.95391113 48.82340576 3.83886719 49.71923828 C2 51 2 51 0 51 C0 47.7 0 44.4 0 41 C-41.25 41.33 -82.5 41.66 -125 42 C-125 43.65 -125 45.3 -125 47 C-122.22700689 49.77299311 -120.5588208 49.26893731 -116.67358398 49.30297852 C-115.69996666 49.31563751 -115.69996666 49.31563751 -114.7066803 49.32855225 C-112.55314417 49.35441068 -110.3997458 49.36649732 -108.24609375 49.37890625 C-106.74592511 49.39508585 -105.24576696 49.41226634 -103.74562073 49.43040466 C-99.78548073 49.47617888 -95.82532628 49.51091476 -91.86505127 49.54260254 C-85.55138416 49.59435261 -79.2378751 49.66017558 -72.92439461 49.73081779 C-70.72829126 49.7534457 -68.5322068 49.76985869 -66.33604431 49.78553772 C-49.89647486 49.93124932 -34.33014512 51.93214372 -22 63.94921875 C-14.04816308 72.64654038 -12.48852757 80.69878011 -12.7265625 92.26953125 C-13.43301318 101.907537 -18.89987489 108.40882708 -25.87890625 114.69140625 C-34.26495088 121.45106647 -45.22110015 125.25726604 -55.95396423 125.24050903 C-56.61739714 125.24221788 -57.28083004 125.24392673 -57.96436697 125.24568737 C-60.16768255 125.24895831 -62.37068751 125.23801865 -64.57397461 125.22705078 C-66.16119377 125.22648615 -67.74841346 125.22680425 -69.33563232 125.22793579 C-73.63058148 125.22850827 -77.92541832 125.21677097 -82.22034144 125.20278788 C-86.71399153 125.19026301 -91.20764435 125.18910863 -95.7013092 125.18673706 C-104.20447459 125.18052745 -112.70758839 125.16412366 -121.21073109 125.14403808 C-130.8938942 125.12166292 -140.57705981 125.11068158 -150.26024234 125.10064721 C-170.17352366 125.07975698 -190.08675858 125.04459109 -210 125 C-210 128.63 -210 132.26 -210 136 C-216.86557944 131.53526736 -223.39137265 126.7500855 -229.875 121.75 C-231.72596993 120.32735369 -233.57750683 118.90544465 -235.4296875 117.484375 C-236.23647949 116.86272461 -237.04327148 116.24107422 -237.87451172 115.60058594 C-239.54241106 114.34458455 -241.26274201 113.15817199 -243 112 C-243 111.34 -243 110.68 -243 110 C-241.4621582 108.64648437 -241.4621582 108.64648437 -239.30078125 107.09375 C-238.50921631 106.51898926 -237.71765137 105.94422852 -236.90209961 105.35205078 C-236.04753174 104.74087402 -235.19296387 104.12969727 -234.3125 103.5 C-232.56939178 102.23825016 -230.82720862 100.97522141 -229.0859375 99.7109375 C-227.79187988 98.77266113 -227.79187988 98.77266113 -226.47167969 97.81542969 C-222.0223553 94.5474352 -217.69752827 91.12339183 -213.37109375 87.6953125 C-211 86 -211 86 -209 86 C-209 89.3 -209 92.6 -209 96 C-189.46738602 95.93940807 -169.93490893 95.86186759 -150.40244389 95.76428509 C-141.33267951 95.71936622 -132.26295405 95.67994256 -123.19311523 95.65356445 C-115.28559383 95.63055269 -107.37819601 95.59711922 -99.47077268 95.55129844 C-95.28588158 95.52740901 -91.10111254 95.50865224 -86.91615486 95.50238609 C-82.97215629 95.4963158 -79.02846987 95.47624626 -75.0845871 95.44572449 C-73.64192565 95.4369753 -72.19922336 95.43321518 -70.75653648 95.43499184 C-59.5384449 95.47664821 -59.5384449 95.47664821 -49 92 C-46.78103864 90.17528109 -46.78103864 90.17528109 -46.625 87.5625 C-46.762247 84.93745499 -46.762247 84.93745499 -48.5625 83.3125 C-53.88716632 80.44537198 -59.16210217 79.7488218 -65.13769531 79.71289062 C-65.81355179 79.70605759 -66.48940826 79.69922455 -67.18574524 79.69218445 C-68.64139787 79.67868352 -70.09709674 79.66957465 -71.55280304 79.66447449 C-73.86688756 79.65610989 -76.18059148 79.63553418 -78.49456787 79.61193848 C-83.41298787 79.56392177 -88.33144656 79.53089045 -93.25 79.5 C-98.94145381 79.46414327 -104.63272117 79.42190723 -110.3239975 79.36405945 C-112.58543037 79.34423388 -114.84671444 79.3357202 -117.10821533 79.32775879 C-132.23838202 79.21679473 -145.53318424 77.32648645 -157.0625 66.5625 C-163.70732056 59.2581439 -165.43541613 51.30390582 -165.3359375 41.64453125 C-164.56634668 33.29536574 -160.18342872 27.34787644 -154.16796875 21.75 C-142.08303427 11.99495379 -128.48791417 10.83967371 -113.52539062 10.88647461 C-112.29527252 10.88632858 -111.06515442 10.88618256 -109.79776001 10.8860321 C-106.44707637 10.88660674 -103.09645541 10.89159975 -99.74578285 10.89860606 C-96.23575655 10.90488468 -92.72572929 10.90544695 -89.21569824 10.90663147 C-82.57900443 10.90973154 -75.94232722 10.91792699 -69.3056407 10.92798096 C-61.74574642 10.93918333 -54.18585133 10.94466292 -46.62595081 10.94967639 C-31.08395735 10.96011079 -15.54198148 10.97788742 0 11 C0 7.37 0 3.74 0 0 Z " fill="#EE4D22" transform="translate(461,10)"/>
<path d="M0 0 C5.55124643 3.36415077 10.24883857 7.83234677 15.05419922 12.16552734 C17.38459223 14.2373658 19.79857877 16.19636864 22.2265625 18.15234375 C27.07253039 22.08612945 31.80754778 26.13682134 36.53515625 30.2109375 C40.91566879 33.97798658 45.36872102 37.64509049 49.85546875 41.28515625 C53.9426036 44.65495723 57.95281874 48.11237774 61.95703125 51.58007812 C62.5190625 52.06541016 63.08109375 52.55074219 63.66015625 53.05078125 C64.15572021 53.48052246 64.65128418 53.91026367 65.16186523 54.35302734 C66.96519673 55.85050436 68.85134443 57.24593019 70.7265625 58.65234375 C71.0565625 38.52234375 71.3865625 18.39234375 71.7265625 -2.34765625 C83.2765625 -2.34765625 94.8265625 -2.34765625 106.7265625 -2.34765625 C106.79434097 11.10862936 106.84938037 24.56480157 106.88199902 38.02121925 C106.89765436 44.26958178 106.91889058 50.51782146 106.95288086 56.76611328 C106.98547848 62.79613833 107.0034165 68.82604522 107.01119423 74.85615158 C107.01673697 77.15664912 107.02756053 79.4571402 107.04375267 81.75758743 C107.06553185 84.97997257 107.06852916 88.2018695 107.06713867 91.42431641 C107.0779245 92.37522156 107.08871033 93.32612671 107.099823 94.30584717 C107.06971365 100.75498321 105.98295646 104.97287592 101.7265625 110.02734375 C96.60705307 112.80041136 91.24346192 112.32440431 85.62109375 111.25 C74.75062079 107.82075802 65.74293684 98.18420882 57.35546875 90.81640625 C53.49465445 87.43127967 49.52522802 84.19212489 45.53515625 80.9609375 C42.22357201 78.23889816 38.97358491 75.45077591 35.7265625 72.65234375 C26.91366229 65.06492016 17.90863106 57.79395263 8.7265625 50.65234375 C8.3965625 70.45234375 8.0665625 90.25234375 7.7265625 110.65234375 C-3.8234375 110.65234375 -15.3734375 110.65234375 -27.2734375 110.65234375 C-27.36380876 97.19606299 -27.43719434 83.73998381 -27.48068619 70.28346825 C-27.50156015 64.03505554 -27.52987497 57.78686123 -27.57519531 51.53857422 C-27.61865887 45.50853961 -27.64257605 39.47871508 -27.65294647 33.44853592 C-27.66033684 31.14802366 -27.67476843 28.84752289 -27.69635773 26.54710007 C-27.72539763 23.32460439 -27.72939314 20.10297658 -27.72753906 16.88037109 C-27.74192017 15.92946594 -27.75630127 14.97856079 -27.77111816 13.99884033 C-27.73514983 8.22078404 -27.0395143 5.09508875 -23.2734375 0.65234375 C-17.12006897 -4.94162764 -7.02147286 -3.1317998 0 0 Z " fill="#FEFEFE" transform="translate(44.2734375,24.34765625)"/>
<path d="M0 0 C10.13532009 6.65626821 16.17219106 17.16130057 22.75976562 27.05761719 C25.59030059 31.27150831 28.50944886 35.42221489 31.4296875 39.57421875 C32.60550492 41.24997462 33.78128604 42.92575597 34.95703125 44.6015625 C35.54081543 45.43284668 36.12459961 46.26413086 36.72607422 47.12060547 C39.65240614 51.28963737 42.57196849 55.46340395 45.4921875 59.63671875 C46.65882139 61.30340836 47.82548807 62.97007502 48.9921875 64.63671875 C51.32552083 67.97005208 53.65885417 71.30338542 55.9921875 74.63671875 C56.57081543 75.46324951 57.14944336 76.28978027 57.74560547 77.14135742 C58.90118537 78.79234739 60.05646356 80.44354858 61.21142578 82.0949707 C64.29515739 86.50335478 67.38547466 90.90695023 70.484375 95.3046875 C71.1340625 96.22830078 71.78375 97.15191406 72.453125 98.10351562 C73.70903865 99.88870717 74.96679079 101.67260702 76.2265625 103.45507812 C77.06574219 104.64907227 77.06574219 104.64907227 77.921875 105.8671875 C78.41929199 106.57254639 78.91670898 107.27790527 79.42919922 108.00463867 C80.4921875 109.63671875 80.4921875 109.63671875 80.4921875 110.63671875 C74.39113787 110.93490903 68.29437979 111.15177204 62.18774414 111.29589844 C60.11440119 111.35600002 58.04156179 111.43771582 55.9699707 111.54199219 C39.28655546 112.36031792 39.28655546 112.36031792 34.71905518 109.54302979 C31.40623369 106.45223503 29.47056077 102.65192079 27.4921875 98.63671875 C26.57556475 97.27247123 25.63655892 95.92265408 24.6640625 94.59765625 C23.8547039 93.40374232 23.04741456 92.20842305 22.2421875 91.01171875 C18.27015067 85.17315792 14.20283222 79.41394676 10.0546875 73.69921875 C5.64290062 67.62058121 1.26163205 61.52257762 -3.0703125 55.38671875 C-3.55878662 54.69586182 -4.04726074 54.00500488 -4.55053711 53.29321289 C-7.26249757 49.44515449 -9.91477477 45.56593356 -12.5078125 41.63671875 C-20.37968948 51.43163417 -27.86737034 61.44858482 -35.12890625 71.69873047 C-37.67358812 75.2751619 -40.24806081 78.83009128 -42.8203125 82.38671875 C-43.91536985 83.90103786 -45.01042187 85.41536082 -46.10546875 86.9296875 C-46.6586377 87.69458496 -47.21180664 88.45948242 -47.78173828 89.24755859 C-49.58727687 91.74671002 -51.38967768 94.24810061 -53.19140625 96.75 C-53.78848389 97.57854492 -54.38556152 98.40708984 -55.00073242 99.26074219 C-56.15393265 100.86115401 -57.30646162 102.46204977 -58.45825195 104.06347656 C-59.2330188 105.13807129 -59.2330188 105.13807129 -60.0234375 106.234375 C-60.48008789 106.86867432 -60.93673828 107.50297363 -61.40722656 108.15649414 C-62.5078125 109.63671875 -62.5078125 109.63671875 -63.5078125 110.63671875 C-64.85876232 110.72940874 -66.21448341 110.75419201 -67.56860352 110.75024414 C-68.42942032 110.75016861 -69.29023712 110.75009308 -70.17713928 110.75001526 C-71.11255051 110.74485397 -72.04796173 110.73969269 -73.01171875 110.734375 C-73.96473373 110.73296005 -74.91774872 110.7315451 -75.89964294 110.73008728 C-78.95656415 110.72447027 -82.01341327 110.71191491 -85.0703125 110.69921875 C-87.13736874 110.69420594 -89.20442612 110.68964266 -91.27148438 110.68554688 C-96.35028838 110.67449531 -101.4290382 110.6572193 -106.5078125 110.63671875 C-105.34444098 107.50543848 -104.15745473 104.88534721 -102.109375 102.24609375 C-101.63636963 101.62814941 -101.16336426 101.01020508 -100.67602539 100.37353516 C-100.16676514 99.71788574 -99.65750488 99.06223633 -99.1328125 98.38671875 C-94.83151083 92.75348914 -90.63486156 87.06821741 -86.5703125 81.26171875 C-82.42925755 75.35213066 -78.24361083 69.47880837 -74.0078125 63.63671875 C-69.80076904 57.83118618 -65.63195814 52.00142941 -61.5078125 46.13671875 C-55.7333742 37.93083733 -49.88862674 29.77785078 -43.98144531 21.66699219 C-42.63478326 19.81165063 -41.30045316 17.94811889 -39.96875 16.08203125 C-30.14558403 2.54564103 -16.89911747 -9.37413051 0 0 Z " fill="#FDFDFE" transform="translate(541.5078125,24.36328125)"/>
<path d="M0 0 C7.88836702 4.13930213 12.97658746 11.48493383 17.75 18.75 C18.88731709 20.44665878 20.02669294 22.14193906 21.16796875 23.8359375 C21.74208496 24.68897461 22.31620117 25.54201172 22.90771484 26.42089844 C25.55069821 30.2940677 28.30046989 34.08622898 31.0625 37.875 C35.82169961 44.42299469 40.53111701 51.00341492 45.1875 57.625 C46.06329712 58.86334595 46.06329712 58.86334595 46.95678711 60.12670898 C47.50858643 60.91376221 48.06038574 61.70081543 48.62890625 62.51171875 C49.11174072 63.19838623 49.5945752 63.88505371 50.09204102 64.5925293 C52.07999047 67.63349992 53.84412722 70.77078441 55.625 73.9375 C49.54233701 74.26088305 43.46474811 74.49561184 37.37548828 74.65161133 C35.30884618 74.7166681 33.24279524 74.80515531 31.17822266 74.91821289 C14.61087615 75.80217802 14.61087615 75.80217802 9.78070068 72.78573608 C6.13281188 69.4045436 3.95089929 65.28535613 1.625 60.9375 C0.37377867 59.11346612 -0.89793355 57.30321597 -2.1953125 55.51171875 C-3.30086976 53.88552115 -4.40254335 52.25667534 -5.5 50.625 C-6.07492188 49.77744141 -6.64984375 48.92988281 -7.2421875 48.05664062 C-8.62341216 46.01933425 -10.00100623 43.97968658 -11.375 41.9375 C-15.13931772 45.39254279 -17.87018727 49.31836068 -20.75 53.5 C-25.18256097 59.85946219 -29.69798412 66.14630282 -34.3125 72.375 C-40.01240674 80.07444538 -45.64537156 87.81911285 -51.2421875 95.59375 C-51.75942383 96.27268311 -52.27666016 96.95161621 -52.80957031 97.65112305 C-54.48706165 99.96619501 -54.48706165 99.96619501 -55.74511719 102.88989258 C-57.6441719 106.47875966 -59.09005785 108.51057719 -62.375 110.9375 C-69.65224764 112.78555293 -77.45162813 111.96609598 -84.875 111.625 C-86.95820459 111.56977824 -89.04154925 111.51959595 -91.125 111.47460938 C-96.21180703 111.35382587 -101.29186177 111.16431252 -106.375 110.9375 C-102.48669292 105.02343932 -98.47829635 99.22150937 -94.3125 93.5 C-93.16531967 91.91800132 -92.01818556 90.33596912 -90.87109375 88.75390625 C-90.00073486 87.55531982 -90.00073486 87.55531982 -89.11279297 86.33251953 C-86.36023907 82.53896042 -83.61791087 78.73803402 -80.875 74.9375 C-77.59118739 70.38965261 -74.30654948 65.84240615 -71.01953125 61.296875 C-66.12154494 54.5220902 -61.22783265 47.7447259 -56.375 40.9375 C-50.41133308 32.57780463 -44.42593896 24.23432041 -38.375 15.9375 C-37.66988281 14.96941406 -36.96476562 14.00132813 -36.23828125 13.00390625 C-27.21220163 0.97589453 -15.25028287 -7.06549803 0 0 Z " fill="#FDFDFE" transform="translate(257.375,24.0625)"/>
<path d="M0 0 C3.375 0.6875 3.375 0.6875 4.375 1.6875 C4.5625 5.125 4.5625 5.125 4.375 8.6875 C2.375 10.6875 2.375 10.6875 -1.125 10.9375 C-4.625 10.6875 -4.625 10.6875 -6.625 8.6875 C-6.9375 5.1875 -6.9375 5.1875 -6.625 1.6875 C-3.625 -0.3125 -3.625 -0.3125 0 0 Z " fill="#D9D9E4" transform="translate(282.625,147.3125)"/>
<path d="M0 0 C6.8359375 -0.1953125 6.8359375 -0.1953125 9 0 C11 2 11 2 11.1875 4.375 C11.02008693 6.71878304 10.66556367 8.75372262 10 11 C9.34 11 8.68 11 8 11 C8 10.34 8 9.68 8 9 C6.35 9 4.7 9 3 9 C3 9.66 3 10.32 3 11 C2.01 11 1.02 11 0 11 C0 7.37 0 3.74 0 0 Z " fill="#C9C6D9" transform="translate(454,147)"/>
<path d="M0 0 C1.258125 -0.04125 2.51625 -0.0825 3.8125 -0.125 C4.52019531 -0.14820313 5.22789062 -0.17140625 5.95703125 -0.1953125 C8 0 8 0 11 2 C10.67 4.97 10.34 7.94 10 11 C9.01 10.67 8.02 10.34 7 10 C7 9.34 7 8.68 7 8 C5.35 8 3.7 8 2 8 C2 8.99 2 9.98 2 11 C1.34 11 0.68 11 0 11 C0 7.37 0 3.74 0 0 Z " fill="#DBDFE8" transform="translate(422,147)"/>
<path d="M0 0 C1.258125 -0.04125 2.51625 -0.0825 3.8125 -0.125 C4.52019531 -0.14820313 5.22789062 -0.17140625 5.95703125 -0.1953125 C8 0 8 0 11 2 C10.67 4.97 10.34 7.94 10 11 C9.01 10.67 8.02 10.34 7 10 C7 9.34 7 8.68 7 8 C5.35 8 3.7 8 2 8 C2 8.99 2 9.98 2 11 C1.34 11 0.68 11 0 11 C0 7.37 0 3.74 0 0 Z " fill="#DBDFE8" transform="translate(408,147)"/>
<path d="M0 0 C1.32 0 2.64 0 4 0 C4.67119549 1.4562545 5.33681807 2.91507867 6 4.375 C6.556875 5.59316406 6.556875 5.59316406 7.125 6.8359375 C8 9 8 9 8 11 C4.04 11 0.08 11 -4 11 C-3.1302743 6.65137149 -2.0525056 3.83729307 0 0 Z " fill="#D4D4DD" transform="translate(397,147)"/>
<path d="M0 0 C3 0.1875 3 0.1875 5 1.1875 C5 1.8475 5 2.5075 5 3.1875 C2.36 2.8575 -0.28 2.5275 -3 2.1875 C-3 2.8475 -3 3.5075 -3 4.1875 C-0.36 4.5175 2.28 4.8475 5 5.1875 C5.33 6.8375 5.66 8.4875 6 10.1875 C2.78548731 11.79475635 -0.43612536 11.24498185 -4 11.1875 C-4.33 10.1975 -4.66 9.2075 -5 8.1875 C-2.03 8.5175 0.94 8.8475 4 9.1875 C4 8.5275 4 7.8675 4 7.1875 C1.36 6.8575 -1.28 6.5275 -4 6.1875 C-4.625 4.3125 -4.625 4.3125 -5 2.1875 C-3 0.1875 -3 0.1875 0 0 Z " fill="#D6D6E5" transform="translate(363,146.8125)"/>
<path d="M0 0 C3 0.1875 3 0.1875 5 1.1875 C5 1.8475 5 2.5075 5 3.1875 C2.36 2.8575 -0.28 2.5275 -3 2.1875 C-3 2.8475 -3 3.5075 -3 4.1875 C-0.36 4.5175 2.28 4.8475 5 5.1875 C5.33 6.8375 5.66 8.4875 6 10.1875 C2.78548731 11.79475635 -0.43612536 11.24498185 -4 11.1875 C-4.33 10.1975 -4.66 9.2075 -5 8.1875 C-2.03 8.5175 0.94 8.8475 4 9.1875 C4 8.5275 4 7.8675 4 7.1875 C1.36 6.8575 -1.28 6.5275 -4 6.1875 C-4.625 4.3125 -4.625 4.3125 -5 2.1875 C-3 0.1875 -3 0.1875 0 0 Z " fill="#D6D6E5" transform="translate(316,146.8125)"/>
<path d="M0 0 C0.66 0.33 1.32 0.66 2 1 C2 1.66 2 2.32 2 3 C-0.64 2.67 -3.28 2.34 -6 2 C-6 2.66 -6 3.32 -6 4 C-3.69 4.33 -1.38 4.66 1 5 C1.38218767 6.65614657 1.71395102 8.32457024 2 10 C1 11 1 11 -0.84765625 11.09765625 C-2.8984375 11.06510417 -4.94921875 11.03255208 -7 11 C-7.33 10.34 -7.66 9.68 -8 9 C-5.36 9 -2.72 9 0 9 C0 8.34 0 7.68 0 7 C-2.31 6.67 -4.62 6.34 -7 6 C-7.33 4.35 -7.66 2.7 -8 1 C-5.26094655 -0.36952673 -3.02912668 -0.12621361 0 0 Z " fill="#D7D5E3" transform="translate(477,147)"/>
<path d="M0 0 C0.33 0.66 0.66 1.32 1 2 C-1.64 2 -4.28 2 -7 2 C-7 3.65 -7 5.3 -7 7 C-4.03 7.495 -4.03 7.495 -1 8 C-1 7.34 -1 6.68 -1 6 C-1.99 6 -2.98 6 -4 6 C-4 5.34 -4 4.68 -4 4 C-2.35 4 -0.7 4 1 4 C1 5.98 1 7.96 1 10 C-0.45792884 10.05399736 -1.91642712 10.09279177 -3.375 10.125 C-4.18710937 10.14820313 -4.99921875 10.17140625 -5.8359375 10.1953125 C-8 10 -8 10 -10 8 C-10.32954432 4.90228335 -10.45334601 2.82668977 -8.9375 0.0625 C-5.81857551 -1.64787795 -3.34442199 -0.80513863 0 0 Z " fill="#DED8E0" transform="translate(301,148)"/>
<path d="M0 0 C3.3 0 6.6 0 10 0 C10 0.66 10 1.32 10 2 C7.36 2 4.72 2 2 2 C2 2.99 2 3.98 2 5 C4.31 5 6.62 5 9 5 C9 5.33 9 5.66 9 6 C7.02 6 5.04 6 3 6 C3 6.99 3 7.98 3 9 C5.31 9 7.62 9 10 9 C10 9.66 10 10.32 10 11 C6.7 11 3.4 11 0 11 C0 7.37 0 3.74 0 0 Z " fill="#D1D3E6" transform="translate(441,147)"/>
<path d="M0 0 C0.66 0.99 1.32 1.98 2 3 C-0.31 3 -2.62 3 -5 3 C-5.33 4.98 -5.66 6.96 -6 9 C-3.36 8.67 -0.72 8.34 2 8 C1.67 8.99 1.34 9.98 1 11 C-5.40818182 11.36272727 -5.40818182 11.36272727 -7.9375 9.8125 C-9.38718434 7.33950907 -9.42317323 5.82115488 -9 3 C-6.74087166 -0.63970677 -4.02464148 -0.51378402 0 0 Z " fill="#D3D9E9" transform="translate(388,147)"/>
<path d="M0 0 C1.670625 0.37125 1.670625 0.37125 3.375 0.75 C3.705 1.41 4.035 2.07 4.375 2.75 C1.735 2.75 -0.905 2.75 -3.625 2.75 C-3.625 4.4 -3.625 6.05 -3.625 7.75 C-1.315 7.75 0.995 7.75 3.375 7.75 C3.045 8.74 2.715 9.73 2.375 10.75 C-1 10.875 -1 10.875 -4.625 10.75 C-6.625 8.75 -6.625 8.75 -6.9375 5.25 C-6.834375 4.095 -6.73125 2.94 -6.625 1.75 C-3.625 -0.25 -3.625 -0.25 0 0 Z " fill="#DCDFEA" transform="translate(350.625,147.25)"/>
<path d="M0 0 C2.5 0.125 2.5 0.125 3.5 1.125 C3.625 3.625 3.625 3.625 3.5 6.125 C2.5 7.125 2.5 7.125 0 7.25 C-2.5 7.125 -2.5 7.125 -3.5 6.125 C-3.625 3.625 -3.625 3.625 -3.5 1.125 C-2.5 0.125 -2.5 0.125 0 0 Z " fill="#4D2E7A" transform="translate(281.5,148.875)"/>
<path d="M0 0 C2.69082872 0.17635452 5.32851446 0.61835921 8 1 C8 1.66 8 2.32 8 3 C6.35 3 4.7 3 3 3 C3 3.66 3 4.32 3 5 C3.99 5 4.98 5 6 5 C6 5.66 6 6.32 6 7 C4.00045254 7.04254356 1.99958364 7.04080783 0 7 C-1 6 -1 6 -1.125 3.5 C-1 1 -1 1 0 0 Z " fill="#51337E" transform="translate(294,149)"/>
<path d="M0 0 C3.96 0 7.92 0 12 0 C12 0.66 12 1.32 12 2 C10.35 2 8.7 2 7 2 C7 4.97 7 7.94 7 11 C6.34 11 5.68 11 5 11 C5 8.03 5 5.06 5 2 C3.35 2 1.7 2 0 2 C0 1.34 0 0.68 0 0 Z " fill="#DED6DB" transform="translate(324,147)"/>
<path d="M0 0 C0.66 0 1.32 0 2 0 C2 2.97 2 5.94 2 9 C4.64 9 7.28 9 10 9 C10 9.66 10 10.32 10 11 C6.7 11 3.4 11 0 11 C0 7.37 0 3.74 0 0 Z " fill="#D4DEEB" transform="translate(263,147)"/>
<path d="M0 0 C1.98 0 3.96 0 6 0 C6.5625 1.9375 6.5625 1.9375 7 4 C6 5 6 5 2.9375 5.0625 C1.4834375 5.0315625 1.4834375 5.0315625 0 5 C0 3.35 0 1.7 0 0 Z " fill="#63488B" transform="translate(424,149)"/>
<path d="M0 0 C1.98 0 3.96 0 6 0 C6.5625 1.9375 6.5625 1.9375 7 4 C6 5 6 5 2.9375 5.0625 C1.4834375 5.0315625 1.4834375 5.0315625 0 5 C0 3.35 0 1.7 0 0 Z " fill="#63488B" transform="translate(410,149)"/>
<path d="M0 0 C0.99 0 1.98 0 3 0 C3 1.32 3 2.64 3 4 C-0.21451269 5.60725635 -3.43612536 5.05748185 -7 5 C-7.33 4.01 -7.66 3.02 -8 2 C-5.03 2.33 -2.06 2.66 1 3 C0.67 2.01 0.34 1.02 0 0 Z " fill="#D9D1DB" transform="translate(366,153)"/>
<path d="M0 0 C0.99 0 1.98 0 3 0 C3 1.32 3 2.64 3 4 C-0.21451269 5.60725635 -3.43612536 5.05748185 -7 5 C-7.33 4.01 -7.66 3.02 -8 2 C-5.03 2.33 -2.06 2.66 1 3 C0.67 2.01 0.34 1.02 0 0 Z " fill="#D9D1DB" transform="translate(319,153)"/>
<path d="M0 0 C0.66 1.32 1.32 2.64 2 4 C4.31 4 6.62 4 9 4 C8.67 4.99 8.34 5.98 8 7 C5.66705225 7.04241723 3.33297433 7.04092937 1 7 C0 6 0 6 -0.0625 2.9375 C-0.041875 1.968125 -0.02125 0.99875 0 0 Z " fill="#DED4DB" transform="translate(345,151)"/>
<path d="M0 0 C0.99 0.103125 1.98 0.20625 3 0.3125 C3.66 1.3025 4.32 2.2925 5 3.3125 C2.69 3.3125 0.38 3.3125 -2 3.3125 C-2.33 4.9625 -2.66 6.6125 -3 8.3125 C-3.33 8.3125 -3.66 8.3125 -4 8.3125 C-4.625 5.4375 -4.625 5.4375 -5 2.3125 C-3 0.3125 -3 0.3125 0 0 Z " fill="#D9CCD5" transform="translate(385,146.6875)"/>
<path d="M0 0 C1.65 0 3.3 0 5 0 C5.33 1.32 5.66 2.64 6 4 C4.02 4 2.04 4 0 4 C0 2.68 0 1.36 0 0 Z " fill="#4B3180" transform="translate(457,149)"/>
<path d="M0 0 C0.66 0 1.32 0 2 0 C2.33 1.98 2.66 3.96 3 6 C1.35 6 -0.3 6 -2 6 C-1.34 4.02 -0.68 2.04 0 0 Z " fill="#6C5295" transform="translate(398,149)"/>
<path d="M0 0 C0.66 0 1.32 0 2 0 C2.33 1.65 2.66 3.3 3 5 C-0.3 4.67 -3.6 4.34 -7 4 C-7 3.67 -7 3.34 -7 3 C-5.5459375 2.814375 -5.5459375 2.814375 -4.0625 2.625 C-2.5465625 2.315625 -2.5465625 2.315625 -1 2 C-0.67 1.34 -0.34 0.68 0 0 Z " fill="#CABBCB" transform="translate(402,153)"/>
<path d="M0 0 C1.65 0 3.3 0 5 0 C5 1.98 5 3.96 5 6 C4.01 5.34 3.02 4.68 2 4 C2.33 3.34 2.66 2.68 3 2 C2.01 2 1.02 2 0 2 C0 1.34 0 0.68 0 0 Z " fill="#E1E9EB" transform="translate(297,152)"/>
<path d="M0 0 C0.33 0.99 0.66 1.98 1 3 C2.65 3 4.3 3 6 3 C6 3.33 6 3.66 6 4 C4.02 4 2.04 4 0 4 C0 4.66 0 5.32 0 6 C-0.66 6 -1.32 6 -2 6 C-1.125 1.125 -1.125 1.125 0 0 Z " fill="#E8F0F4" transform="translate(395,152)"/>
</svg>
