<svg version="1.1" xmlns="http://www.w3.org/2000/svg" width="434.838" height="100" viewBox=" 0 5 434.838 100"><path d="M0 0h434.838v114H0z" fill="#472A76"/><path d="M314.694 6.826c4.289 2.792 8.362 5.741 12.373 8.917C330.624 18.547 334.196 21.29 337.904 23.892c-2.877 3.05 -6.062 5.56 -9.386 8.106l-1.573 1.213a1199.388 1199.388 0 0 1 -3.142 2.415 273.736 273.736 0 0 0 -3.315 2.604l-1.666 1.324 -1.507 1.211C316.06 41.641 316.06 41.641 314.694 41.641V34.814l-85.329 0.683v3.413c1.893 1.893 3.032 1.549 5.684 1.572l1.343 0.018c1.47 0.017 2.94 0.025 4.41 0.034q1.537 0.016 3.073 0.035c2.703 0.031 5.406 0.055 8.11 0.077 4.311 0.035 8.62 0.08 12.93 0.128q2.249 0.022 4.497 0.038c11.223 0.099 21.848 1.465 30.265 9.668 5.428 5.938 6.493 11.434 6.33 19.332 -0.482 6.58 -4.214 11.018 -8.978 15.306 -5.725 4.615 -13.204 7.213 -20.53 7.202l-1.372 0.003c-1.505 0.002 -3.008 -0.005 -4.512 -0.013h-3.251c-2.932 0.001 -5.864 -0.007 -8.795 -0.016 -3.068 -0.009 -6.136 -0.01 -9.203 -0.011a10670.938 10670.938 0 0 1 -17.414 -0.029c-6.61 -0.015 -13.22 -0.023 -19.831 -0.029Q191.731 92.203 171.341 92.156v7.509c-4.687 -3.048 -9.141 -6.314 -13.567 -9.728l-3.792 -2.912 -1.669 -1.285c-1.138 -0.857 -2.313 -1.668 -3.499 -2.458v-1.365c1.05 -0.924 1.05 -0.924 2.526 -1.984l1.637 -1.189 1.768 -1.264q1.785 -1.292 3.567 -2.587l1.784 -1.294c3.038 -2.231 5.989 -4.568 8.943 -6.908C170.659 65.533 170.659 65.533 172.024 65.533v6.826q20.001 -0.061 40.001 -0.161 9.287 -0.048 18.574 -0.075a5613.984 5613.984 0 0 0 16.193 -0.07q4.285 -0.025 8.57 -0.033 4.038 -0.007 8.076 -0.038a404.802 404.802 0 0 1 2.954 -0.008c7.658 0.029 7.658 0.029 14.852 -2.345 1.515 -1.246 1.515 -1.246 1.621 -3.029 -0.094 -1.793 -0.094 -1.793 -1.322 -2.901 -3.635 -1.958 -7.236 -2.433 -11.315 -2.457l-1.398 -0.014a516.754 516.754 0 0 0 -2.981 -0.02c-1.58 -0.005 -3.159 -0.019 -4.739 -0.035a2893.004 2893.004 0 0 0 -10.072 -0.076c-3.885 -0.025 -7.77 -0.053 -11.655 -0.093 -1.543 -0.014 -3.088 -0.019 -4.631 -0.025 -10.328 -0.076 -19.404 -1.367 -27.274 -8.715 -4.536 -4.986 -5.716 -10.416 -5.648 -17.009 0.526 -5.7 3.518 -9.76 7.624 -13.581 8.25 -6.659 17.53 -7.448 27.744 -7.416h2.544q3.431 0.001 6.862 0.009 3.594 0.005 7.188 0.005 6.796 0.003 13.591 0.014 7.741 0.011 15.482 0.015 15.914 0.011 31.829 0.034z" fill="#EE4D22"/><path d="M30.222 16.621c3.79 2.296 6.997 5.346 10.277 8.304 1.591 1.414 3.238 2.752 4.896 4.087 3.308 2.685 6.54 5.45 9.768 8.232 2.99 2.571 6.03 5.075 9.093 7.559 2.79 2.3 5.527 4.66 8.261 7.028l1.163 1.003 1.025 0.889c1.231 1.022 2.519 1.975 3.799 2.935l0.683 -41.641h23.892c0.046 9.186 0.084 18.371 0.106 27.557q0.015 6.398 0.048 12.796 0.033 6.174 0.04 12.349 0.005 2.355 0.022 4.711c0.015 2.2 0.017 4.4 0.016 6.599l0.022 1.967c-0.02 4.402 -0.763 7.282 -3.668 10.732 -3.495 1.893 -7.156 1.568 -10.994 0.835 -7.42 -2.341 -13.57 -8.919 -19.295 -13.949 -2.635 -2.311 -5.345 -4.522 -8.069 -6.727 -2.261 -1.858 -4.479 -3.761 -6.696 -5.672 -6.016 -5.179 -12.163 -10.143 -18.431 -15.018l-0.683 40.958H11.605c-0.061 -9.186 -0.112 -18.371 -0.141 -27.557q-0.02 -6.398 -0.065 -12.796 -0.043 -6.174 -0.053 -12.349 -0.007 -2.355 -0.029 -4.711a688.095 688.095 0 0 1 -0.021 -6.599l-0.03 -1.967c0.025 -3.944 0.5 -6.077 3.07 -9.11 4.2 -3.819 11.094 -2.583 15.887 -0.445" fill="#FEFEFE"/><path d="M369.652 16.631c6.918 4.544 11.04 11.715 15.537 18.471 1.932 2.877 3.925 5.71 5.918 8.545l3.615 5.151Q397.716 53.067 400.706 57.341l2.389 3.413 4.778 6.826 3.563 5.091a3198.141 3198.141 0 0 0 6.329 9.018l1.344 1.911q1.286 1.828 2.576 3.653l1.158 1.647 1.029 1.459C424.598 91.473 424.598 91.473 424.598 92.156c-4.165 0.203 -8.327 0.352 -12.495 0.451q-2.124 0.061 -4.245 0.167c-11.389 0.559 -11.389 0.559 -14.507 -1.365 -2.262 -2.109 -3.583 -4.703 -4.933 -7.445a81.233 81.233 0 0 0 -1.93 -2.758q-0.829 -1.222 -1.653 -2.447a473.748 473.748 0 0 0 -8.319 -11.818 1176.179 1176.179 0 0 1 -8.96 -12.501c-0.334 -0.471 -0.667 -0.943 -1.01 -1.429A314.694 314.694 0 0 1 361.114 45.054c-5.374 6.686 -10.485 13.524 -15.442 20.521 -1.737 2.441 -3.495 4.868 -5.251 7.296l-2.242 3.101 -1.144 1.582q-1.848 2.559 -3.693 5.121l-1.235 1.714q-1.181 1.638 -2.36 3.279l-1.069 1.481 -0.944 1.313C326.982 91.473 326.982 91.473 326.299 92.156c-0.922 0.063 -1.848 0.08 -2.771 0.078h-1.782l-1.935 -0.011 -1.971 -0.003c-2.087 -0.003 -4.174 -0.012 -6.26 -0.02q-2.118 -0.005 -4.234 -0.01A5590.774 5590.774 0 0 1 296.946 92.156c0.794 -2.137 1.604 -3.926 3.002 -5.727l0.979 -1.279 1.053 -1.356c2.936 -3.845 5.801 -7.727 8.576 -11.69A916.095 916.095 0 0 1 319.131 60.072 1033.508 1033.508 0 0 0 327.664 48.126a1262.873 1262.873 0 0 1 11.964 -16.704 584.335 584.335 0 0 0 2.739 -3.813c6.706 -9.24 15.748 -17.377 27.284 -10.978" fill="#FDFDFE"/><path d="M175.693 16.426c5.385 2.825 8.859 7.839 12.117 12.799q1.165 1.737 2.333 3.471l1.188 1.765c1.804 2.645 3.681 5.233 5.566 7.82a1060.814 1060.814 0 0 1 9.642 13.482l1.208 1.707 1.141 1.628 0.999 1.421c1.357 2.076 2.561 4.217 3.777 6.379 -4.152 0.22 -8.301 0.381 -12.458 0.487a182.263 182.263 0 0 0 -4.23 0.182c-11.309 0.603 -11.309 0.603 -14.606 -1.456 -2.49 -2.308 -3.98 -5.12 -5.568 -8.088a177.485 177.485 0 0 0 -2.608 -3.704 809.604 809.604 0 0 1 -2.256 -3.335l-1.189 -1.754A1421.927 1421.927 0 0 1 167.928 45.054c-2.569 2.359 -4.434 5.038 -6.4 7.893a548.838 548.838 0 0 1 -9.258 12.884c-3.891 5.256 -7.736 10.543 -11.557 15.851l-1.07 1.404c-1.145 1.58 -1.145 1.58 -2.004 3.576 -1.297 2.451 -2.283 3.837 -4.526 5.494 -4.968 1.262 -10.292 0.702 -15.359 0.47q-2.133 -0.057 -4.266 -0.102c-3.473 -0.083 -6.94 -0.212 -10.41 -0.367a303.09 303.09 0 0 1 8.235 -11.903l2.348 -3.24 1.201 -1.653c1.879 -2.59 3.75 -5.184 5.623 -7.779q3.362 -4.657 6.727 -9.311A2574.214 2574.214 0 0 0 137.209 44.371c4.071 -5.707 8.157 -11.402 12.287 -17.066l1.459 -2.003c6.161 -8.211 14.327 -13.7 24.737 -8.877" fill="#FDFDFE"/></svg>